<?xml version="1.0" encoding="UTF-8"?>
<svg width="752pt" height="752pt" version="1.1" viewBox="0 0 752 752" xmlns="http://www.w3.org/2000/svg">
 <g>
  <path d="m365.39 340.59c-5.0078-1.8984-9.4336-5.0664-12.852-9.1875-4.1641-4.1211-8.0469-8.5195-11.613-13.168-0.26172-0.40234-0.79297-0.53125-1.207-0.28906-0.41406 0.24219-0.56641 0.76953-0.33984 1.1953 1.5938 2.9492 4.0664 8.1523 7.2031 13.031v-0.003906c0.125 1.332 0.17969 2.668 0.16406 4.0039-0.56641 3.4219 0.11719 7.0078-3.2539 9.1953-1.6328 0.94531-3.3164 1.8086-5.0391 2.582-2.3047 1.1758-4.207 2.5-6.4102 1.5703h0.003906c-3.7305-3.6484-7.9336-6.7734-12.504-9.2891-5.9883-3.3789-12.871-4.8242-19.715-4.1328-9.8398 1.1367-19.617 2.8789-29.473 4.0078-1.5273 0.17578-1.6016 2.5352 0 2.4453 16.613-3.6953 33.988-1.5586 49.207 6.0508 5.1914 3.8438 9.4922 8.3711 15.055 11.754v0.003906c4.8672 3.1836 10.094 5.7891 15.57 7.7578 0.17188 0.039062 0.34766-0.050782 0.41797-0.21094 0.066406-0.16406 0.007813-0.35156-0.14062-0.44531-5.6641-3.7188-10.625-8.4102-14.656-13.855 3.0391-0.96484 5.9453-2.3047 8.6484-3.9961l1.6094-0.85938c-0.089843 2.4727 0.09375 4.9453 0.54688 7.375 0.16406 0.54297 0.63281 0.94141 1.1953 1.0156 0.56641 0.074219 1.1211-0.19141 1.418-0.67188 3.2812-5.625 3.8867-12.414 1.6523-18.527 4.25 4.8086 9.2812 7.7188 14.777 4.6641 0.37109-0.23047 0.57422-0.66016 0.51562-1.0938-0.058593-0.43359-0.36328-0.79688-0.78125-0.92188z"/>
  <path d="m479.54 342.7c-8.0508-3.4883-16.645-5.543-25.402-6.0781-7.6289 0.28125-15.125 2.1016-22.035 5.3594-0.91797 0.40625-1.8086 0.87109-2.668 1.3906-8.2461 1.7461-16.84 0.64844-24.383-3.1094-5.8828-3.5352-7.3594-13.84-7.957-22.227 1.9883-4.6406 2.7773-9.7031 2.2969-14.73-0.09375-0.61328-0.98438-0.62109-1.2617-0.16406-4.1016 6.7969-5.1914 15.02-9.4492 21.953-4.2227 6.5273-10.195 11.734-17.238 15.027-0.55469 0.28516-0.32031 1.2969 0.33203 1.2227 7.875-1.2656 14.863-5.7578 19.285-12.395 1.332-1.7891 2.5312-3.6719 3.5859-5.6328-1.1875 8.2344 1.418 16.566 7.0898 22.656 2.7656 2.4336 6.1797 4.0117 9.8242 4.5469 3.6445 0.53125 7.3633 0 10.711-1.5352-3.2891 3.3828-6.8594 6.4844-10.668 9.2695-8.168 5.1641-16.961 9.2656-26.164 12.199-0.61328 0.20703-0.35938 1.168 0.26953 0.97656v0.003906c15.191-3.418 29.547-9.8438 42.219-18.891 2.957-2.8242 6.0781-5.4727 9.3398-7.9336 4.5156-2.4648 9.6523-3.5547 14.777-3.1367 9.1133 0.11328 18.207 0.85156 27.223 2.2031 0.26562 0.0625 0.53516-0.09375 0.60938-0.35938 0.074219-0.26172-0.078125-0.53516-0.33594-0.61719z"/>
  <path d="m526.38 343.93c-1.9648-3.5625-5.0547-6.3711-8.7891-7.9805-3.7344-1.6094-7.8984-1.9336-11.836-0.91797-4.3516 0.80469-8.4688 2.582-12.039 5.1992-2.6836 2.0547-4.5664 4.9023-7.3398 6.8945-2.5 1.8008-5.3438 3.0938-7.9062 4.7891v0.003906c-8.0352 6.7812-13.508 16.113-15.508 26.434-5.4883 12.465-13.535 23.637-23.621 32.785-0.63281 0.65234 0.23438 1.9062 1.0117 1.3125 8.0859-5.5586 15.52-12.008 22.164-19.227 5.5234-7.6523 9.8477-16.098 12.824-25.051 1.8086-4.7852 5.1016-8.8633 9.3945-11.637 4.3984-2.5078 8.3789-5.6875 11.801-9.418 3.6055-4.3203 5.7305-9.3984 12.422-9.1836 5.9453 0.1875 9.207 4.6797 12.836 8.6641 1.7656 1.9414 5.6133-0.085938 4.5859-2.668z"/>
  <path d="m281.14 360.61c-2.9727-2.6914-6.082-5.6406-8.7969-8.6055v0.003906c-2.7461-3.6445-5.1758-7.5117-7.2617-11.562-3.3008-5.1992-8.5391-8.8594-14.555-10.168-5.5859-1.168-11.391-0.76563-16.762 1.1641 0.76172-2.5898 1.3359-5.2344 1.7227-7.9102 1.3125-12.516 4.8711-24.695 10.504-35.953 0.26562-0.53516 0.070312-1.1836-0.44531-1.4844-0.51562-0.30078-1.1758-0.15234-1.5117 0.33984-6.1406 8.5508-10.41 18.297-12.535 28.605-0.53516 5.1133-2.0938 10.066-4.582 14.562-3.0156 4.6875-6.4805 9.0703-10.348 13.082l-0.57422 1.1172-2.668 2.2344c-1.2656 0.99609 0.42969 3.2188 1.7344 2.25l2.6055-1.7891v-0.003907c0.55469 0.14062 1.1406 0.03125 1.6094-0.29297 2.1914-1.4219 4.3086-2.6367 6.2852-4.0391 2.6523-1.2617 5.3242-2.4023 7.8477-3.4023 6.4336-3.0352 13.883-3.0742 20.348-0.10547 5.1992 2.9297 8.293 9.4062 12.312 13.758v0.003906c3.7539 4.4688 8.6641 7.8203 14.195 9.6914 0.39062 0.10156 0.80078-0.070312 1.0039-0.41797s0.14844-0.78516-0.12891-1.0781z"/>
  <path d="m320.2 431.46c-2.6523-5.2148-2.3945-11.215-4.5469-16.621-2.1836-4.3594-5.4141-8.1055-9.4023-10.906-8.6992-8.5-14.984-19.156-18.219-30.883-0.13672-0.40625-0.56641-0.64062-0.98047-0.52734-0.41797 0.11719-0.66797 0.53516-0.57422 0.95703 1.4297 11.238 5.4258 22 11.684 31.445l1.25 1.4258c-0.76562 0.28516-1.5039 0.63672-2.207 1.0469-2.7148 2.0273-5.125 4.4336-7.1602 7.1406-1.0039 1.0547 0.34766 3.043 1.6289 2.1094l-0.003906-0.003906c3.0273-1.6953 6.2266-3.0703 9.543-4.0977 0.98437-0.42578 1.9023-0.99219 2.7305-1.6758 2.3906 2.1406 4.4492 4.6289 6.1016 7.3789 2.4102 5.0664 5.2578 9.9102 8.5156 14.477 0.78125 0.96094 2.1484-0.26562 1.6406-1.2656z"/>
  <path d="m330.97 428.62c-0.64453-0.32813-1.3242-0.57031-2.0312-0.72266l-1.1562-0.16016-0.085938-0.039063-0.48437-0.17187 0.003906-0.003907c-1.0391-0.28125-2.125 0.25-2.5352 1.2461-0.41016 0.98828-0.035157 2.125 0.87891 2.6797l0.11719 0.0625 0.03125 0.054688 0.41797 0.71484 0.79297 1.25c0.61328 1.0664 1.5781 1.8828 2.7305 2.3125 1.457 0.39453 3.0039-0.21875 3.7891-1.5117 0.48438-1.0781 0.49219-2.3125 0.023438-3.3984-0.46875-1.0859-1.375-1.9258-2.4922-2.3125z"/>
  <path d="m429.45 427.18c-0.80078-1.0156-2.2227-1.2969-3.3477-0.66406-0.57031 0.21484-1.1562 0.38281-1.75 0.50781-1.0859 0.30469-2.0664 0.91406-2.8203 1.75-1.0625 1.0586-1.2734 2.6992-0.51953 3.9961 0.75391 1.293 2.2852 1.918 3.7305 1.5195 1.2227-0.35156 2.2969-1.082 3.0742-2.0859l0.42188-0.57812 0.09375-0.12891 0.91016-0.90234h0.003906c0.91797-0.92578 1.0078-2.3867 0.20312-3.4141z"/>
  <path d="m375.34 442.75c-4.4922-3.3398-10.07-0.39062-14.492 1.8945-3.5234 2.4219-7.6328 3.8438-11.895 4.125-4.2656 0.28125-8.5234-0.59766-12.332-2.5352-1.7031-1.0117-3.125 1.5234-1.5352 2.6289 5.0742 3.918 11.488 5.6797 17.852 4.9023 3.4648-0.71875 6.7812-2.0273 9.8047-3.875 4.0117-1.8086 8.1133-3.4062 12.289-4.793 0.48047-0.15625 0.83203-0.57422 0.89844-1.0742 0.066406-0.50391-0.16406-1-0.58984-1.2734z"/>
  <path d="m422.19 440.57c-10.125 3.3047-24.793 8.7031-34.727 2.3438-1.8242-1.1641-3.293 1.5938-1.6562 2.832v0.003906c5.543 4.1289 12.445 6.0156 19.32 5.2773 6.8711-0.73828 13.215-4.043 17.758-9.2578 0.22656-0.23047 0.26953-0.58203 0.10547-0.86328-0.16016-0.27734-0.48828-0.41406-0.80078-0.33594z"/>
  <path d="m376.89 406.6c-0.71484-4.6133-1.7617-9.1719-3.125-13.637-0.26953-1.1523-2.2539-0.93359-2.1094 0.28516 0.25 4.4453 0.24219 8.9062-0.03125 13.352 0.019532 4.4961 0.32812 8.9844 0.92578 13.438 0.027343 0.67188 0.53125 1.2305 1.1953 1.3203 0.66797 0.089844 1.3008-0.3125 1.5039-0.95312 1.4609-4.4453 2.0195-9.1406 1.6406-13.805z"/>
  <path d="m485.99 289.75c-1.2578-1.9414-1.7852-4.2656-1.4922-6.5625-0.09375-2.7734-0.45312-5.5117-0.46875-8.2852-0.007812-1.3867-1.918-1.2891-2.082 0-0.625 4.7461-5 16.035 2.2227 17.992h-0.003906c0.81641 0.19531 1.6641-0.16797 2.0859-0.89062 0.42188-0.72656 0.31641-1.6406-0.26172-2.2539z"/>
  <path d="m495.08 287.52c0.15234-4.2227 0.015625-8.4336 0.16406-12.652 0.066406-1.9648-2.7539-1.8477-2.9844 0-0.47266 3.8086-1.2031 7.5781-1.6875 11.391-0.29687 2.332-0.79687 4.8242 1.5703 6.1836l0.003906-0.003906c0.56641 0.33984 1.2773 0.33984 1.8438 0 1.4219-1.0547 1.0352-3.3281 1.0898-4.918z"/>
  <path d="m506.32 278.04c0.046875-1.7695-2.8906-2.2539-3.1641-0.42969-0.41016 2.7266-0.94531 5.4414-1.4922 8.1445-0.23438 1.1719-0.73828 4.6523-2.0352 5.1797v0.003906c-0.65625 0.20703-1.0664 0.85547-0.97266 1.5352 0.089844 0.67969 0.66016 1.1953 1.3477 1.2188 8.4062 0.48828 6.1719-10.191 6.3164-15.652z"/>
  <path d="m532.85 323.85c0.56641-5.8516 0.52344-11.746-0.13281-17.59-0.64062-9.3945-4.4883-18.285-10.898-25.188 0.89844-0.36328 1.7461-0.84375 2.5234-1.418 3.5586-2.5234 5.0977-7.0469 3.8047-11.215-0.17969-0.57812-0.71484-0.97656-1.3203-0.97656-0.60938 0-1.1445 0.39844-1.3242 0.97656-1.1875 2.8711-3.1562 5.3477-5.6875 7.1484-2.5312 1.8008-5.5156 2.8516-8.6133 3.0352-1.4375 0.042968-1.9141 2.3945-0.35547 2.6367h-0.003906c2.1367 0.39844 4.2969 0.61719 6.4688 0.66016 6.9141 9.1406 10.992 20.105 11.723 31.543-1.8633 9.6797-1.0938 19.688 2.2344 28.969 0.21094 0.33984 0.61719 0.5 1 0.39453 0.38672-0.10547 0.65625-0.44922 0.66797-0.84766 0.085938-6.082-0.64062-12-0.085938-18.129z"/>
  <path d="m559.64 368.01c-4.5195-2.7109-8.6289-6.0508-12.203-9.9219-4.2188-3.8242-9.5195-6.0625-13.766-9.8438-0.40234-0.36719-1.0195-0.35156-1.4023 0.03125-0.38672 0.38281-0.39844 1-0.03125 1.4023 2.3906 2.543 5.2031 4.7344 7.4844 7.3672 2.3477 2.7148 3.9688 5.9883 6.3477 8.6797l-0.003906 0.003906c3.0156 4.1641 8.2969 6.0312 13.258 4.6797 0.5-0.14844 0.86719-0.57812 0.93359-1.0938 0.070313-0.51953-0.17187-1.0273-0.61719-1.3047z"/>
  <path d="m586.08 360.09c-2.4688 1.6484-4.5898 3.7695-6.2422 6.2383-2.3359 2.625-4.8945 5.0352-7.6523 7.207-5.668 5.3438-12.508 9.2773-19.977 11.488-16.113 0.68359-31.809-5.2383-43.457-16.395-1.9609-1.6719-4.7695 1.0273-2.8672 2.8672 1.543 1.4922 3.1719 2.9844 4.8711 4.4414-1.375 0.75-2.6875 1.6602-4.1055 2.4531h0.003906c-3.5469 2.0039-7.3828 3.4375-11.375 4.2422-0.73047 0.14844-0.40234 1.1875 0.30078 1.0938v-0.003906c6.6367-0.074218 13.176-1.6445 19.125-4.5898 7.5664 6.2188 16.582 10.422 26.207 12.227-8.582 3.3047-17.035 6.8867-25.945 9.3438l0.003906-0.003906c-5.6641 1.7266-11.434 3.0938-17.266 4.0898-7.0781 1.0078-19.645-2.1797-22.23-10.262l-0.003906-0.003906c-0.26562-0.83984-1.1484-1.3203-2-1.0859-0.85156 0.23438-1.3633 1.1016-1.1641 1.957 0.39453 2.8086 1.5195 5.4648 3.2656 7.6992 1.7461 2.2344 4.0508 3.9727 6.6797 5.0312 8.1875 1.9688 16.676 2.3633 25.012 1.1719 15.703-1.043 30.613-7.2773 42.387-17.723l1.793-0.22656h-0.003906c7.75-1.543 14.949-5.1094 20.867-10.336 3.3398-3.0859 6.4414-6.418 9.2812-9.9648 2.9258-2.5039 5.3086-5.582 6.9922-9.0469 0.51562-1.4648-1.2695-2.5742-2.5-1.9102z"/>
  <path d="m529.51 254.52c-7.8008-4.8242-17.207-6.3281-26.121-4.168-10 0.43359-19.859 2.5352-29.172 6.2109-1.5273 0.69531-0.41016 2.9688 1.1016 2.6172 8.8633-2.1016 17.852-3.625 26.91-4.5664 3.8828-0.59375 7.8047-0.85938 11.73-0.80078 4.6719 0.78516 9.2109 2.2109 13.488 4.2422 0.91797 0.23047 1.8828-0.17188 2.3594-0.99219 0.47656-0.82031 0.35547-1.8594-0.29688-2.543z"/>
  <path d="m590.2 354.53c-3.3867-18.277-11-35.508-22.223-50.324-4.9102-7.1602-10.348-14.004-15.793-20.766-6.9023-7.2188-12.898-15.254-17.855-23.93-0.64062-1.4023-3.0391-0.40625-2.5078 1.0586 2.4805 7.4688 6.1406 14.488 10.84 20.801 6.0898 7.8477 13.164 14.652 18.734 22.945l-0.003907 0.003906c9.543 16.406 17.57 33.656 23.977 51.523 0.60547 0.98828 1.7891 1.4531 2.9062 1.1523 1.1172-0.30469 1.9023-1.3086 1.9258-2.4648z"/>
  <path d="m265.97 268.94c-0.023438-1.7383-2.418-1.6289-2.625 0-0.47656 2.9336-1.1016 5.8359-1.875 8.707-0.83984 2.3359-1.2852 4.8008-1.3125 7.2852 0.015625 0.55859 0.35938 1.0547 0.875 1.2695 0.51562 0.21094 1.1094 0.10156 1.5156-0.28125 3.1289-5.0703 4.3398-11.094 3.4219-16.98z"/>
  <path d="m273.36 272c-1.0781 2.7852-2.293 5.4922-3.207 8.3398-0.48828 1.5156-1.0078 5.2383-2.4609 6.2227-0.28125 0.17578-0.46875 0.46484-0.50781 0.79297-0.042969 0.32812 0.0625 0.65625 0.29297 0.89453 1.8555 2.2734 5.1133 0.53125 6.3398-1.5078 1.9141-4.3203 3.1367-8.9141 3.6289-13.617 0.24609-1.1055-0.41406-2.207-1.5039-2.5078-1.0938-0.30469-2.2266 0.30469-2.582 1.3828z"/>
  <path d="m284.75 264.74c-1.4648 4.875-2.7812 9.7617-3.9609 14.719-1.1211 3.9297-2.625 7.7383-4.4922 11.375-0.28125 0.50781-0.27344 1.1289 0.015625 1.6328 0.28906 0.50391 0.82422 0.82031 1.4062 0.83594 4.0742 0.18359 5.9688-3.8125 6.9297-7.293h-0.003906c1.6641-6.6719 2.9102-13.441 3.7305-20.27 0.27734-1.0039-0.3125-2.0391-1.3125-2.3164-1.0039-0.27344-2.0391 0.3125-2.3125 1.3164z"/>
  <path d="m253.99 266.75c-2.2109 4.8672-3.2305 10.191-2.9766 15.531 0.046875 1.125 0.78906 2.1016 1.8594 2.4492 2.7031 1.1367 3.2031-2.4414 3.0781-4.2148-0.42188-4.3594-0.21094-8.7539 0.625-13.055 0.14453-0.69141-0.27344-1.3789-0.95703-1.5703-0.68359-0.1875-1.3945 0.1875-1.6289 0.85938z"/>
  <path d="m284.73 258.59c-8.0469-9.0391-24.543-7.0078-34.996-4.8711-0.84375 0.17188-0.66797 1.625 0.20703 1.5234 6.3086-0.55078 12.668 0 18.793 1.6211 4.8477 1.8242 9.8125 3.3203 14.859 4.4766 1.4961 0.14453 1.9805-1.8047 1.1367-2.75z"/>
  <path d="m241.04 257.75c-15.953 14.414-32.84 27.766-50.543 39.969-8.0117 7.4023-14.426 16.363-18.848 26.332-2.4688 5.2578-5.8477 9.9414-8.4297 15.078-2.1367 2.9648-1.9023 7.0156 0.55469 9.7148 1.4375 1.4922 3.3789-0.11719 3.1406-1.8203-0.91406-6.5273 5.3711-10.734 8.6133-15.691 3.1719-4.8477 5.3125-10.258 8.2148-15.258 4.9102-7.8984 11.293-14.777 18.801-20.27 15.512-9.7383 29.246-22.059 40.605-36.422 0.82031-1.2656-1.1172-2.8086-2.1094-1.6328z"/>
  <path d="m204.61 348.68c-8.2578 1.668-16.727 2.0312-25.098 1.0781-0.71875-0.17187-1.4453 0.25781-1.6406 0.96875-0.19922 0.71484 0.20312 1.4531 0.91016 1.6758 8.4766 4.2188 18.348 4.6211 27.141 1.1133 0.98047-0.60547 1.4492-1.7891 1.1484-2.9062-0.30469-1.1133-1.3047-1.8984-2.4609-1.9297z"/>
  <path d="m319.47 489.78c-2.0469-5.4727-3.8594-10.988-5.7891-16.496-1.6562-3.9883-4.2695-7.5039-7.6055-10.246-4.0117-3.8398-7.668-8.0352-10.914-12.543-6.2578-9.0781-10.934-19.152-13.836-29.789-1.5977-5.5625-2.4844-11.285-4.1055-16.84-1.7227-5.1016-3.9219-10.027-6.5664-14.715-0.92578-1.8398-4.1992-0.52344-3.3789 1.4219l-0.003907-0.003907c1.2812 3.3945 2.0234 6.9648 2.2031 10.586-5.2617-1.5898-10.824-1.9414-16.246-1.0273-7.3633 0.30469-14.707-0.91797-21.574-3.5859-6.0312-2.3516-11.688-5.5742-16.789-9.5586l-2.6445-1.8242c4.832-0.81641 9.3828-2.8086 13.262-5.8047 1.1133-0.86719-0.16797-2.25-1.2227-2.0938-10.625 2.3477-21.68 1.8164-32.031-1.5312-9.168-3.6055-16.836-10.219-21.754-18.754-0.39453-0.76562-1.75-0.22656-1.4219 0.59766 3.5312 10.984 11.52 19.98 22.008 24.789 4.1641 1.8359 8.6172 2.9297 13.156 3.2383 4.7852 3.5781 9.3477 7.4414 13.664 11.57 6.4141 4.5273 13.609 7.8281 21.223 9.7266 7.4609 1.4922 15.105 1.8516 22.672 1.0742 2.7266 0.34766 5.4883 0.32422 8.207-0.074218l0.125 1.3984c0.52734 5.3516 1.5781 10.641 3.1406 15.789 3.1836 9.8984 8.0156 19.191 14.289 27.484 2.8398 3.8633 5.9336 7.5312 9.2617 10.977 4.3203 3.6055 8.3516 7.543 12.066 11.77 6.5625 9.25 4.7656 22.945 12.582 31.598h-0.003906c0.33594 0.32422 0.83203 0.41406 1.2617 0.23828 0.43359-0.17969 0.71875-0.59375 0.72656-1.0625-0.11719-5.6602-1.4688-11.227-3.9609-16.309z"/>
  <path d="m314.74 456.46c-2.543-0.66797-4.7969-2.1523-6.418-4.2305-0.44922-0.76562-1.4336-1.0234-2.2031-0.57812-0.76562 0.44922-1.0273 1.4375-0.57812 2.2031 1.1562 2.3047 2.7305 4.3711 4.6406 6.1016 1.6602 1.4219 5.2344 3.4414 7.1992 1.4609 2.1992-2.2266-0.67187-4.2383-2.6406-4.957z"/>
  <path d="m320.33 443.99c-2.5469-1.0742-4.9648-2.4336-7.2109-4.0508-0.75781-0.75781-1.9844-0.75391-2.7422 0.003906-0.75781 0.75781-0.75781 1.9844 0.003906 2.7422 1.9336 2.5117 4.332 4.6328 7.0586 6.2539 3.2734 1.6758 6.1719-3.2617 2.8906-4.9492z"/>
  <path d="m445.18 444.87c-4.0469 0.35937-6.8203 3.7891-10.113 5.8242v-0.003906c-0.84375 0.53516-1.1133 1.6406-0.60938 2.5 0.50391 0.86328 1.5977 1.168 2.4766 0.69531 3.25-1.4141 7.6992-1.668 10.102-4.5352 1.3047-1.5586 0.62109-4.7031-1.8555-4.4805z"/>
  <path d="m475.94 413.49c-3.3359 8.6953-7.6914 17.535-11.766 25.938-3.8711 8.4219-8.8672 16.281-14.852 23.355-5.7539 5.1172-9.6172 12.027-10.961 19.609-1.6094 9.8477-4.0273 19.547-7.2305 28.996-0.15234 0.62109 0.12109 1.2695 0.67578 1.5938 0.55078 0.32031 1.2539 0.24219 1.7188-0.19922 6.1289-6.5 9.9414-14.844 10.852-23.73 0.73438-5.8867-0.019531-10.68 4.25-15.582 2.8633-3.2891 6.125-6.0938 8.8086-9.5742v-0.003907c5.0977-6.7695 9.2617-14.199 12.379-22.082 3.2539-9.0859 5.9727-18.355 8.1367-27.762 0.375-1.3242-1.5391-1.7891-2.0117-0.55859z"/>
  <path d="m377.88 472.34c0.16797-0.73438-0.26953-1.4727-0.99609-1.6719-0.72266-0.19922-1.4805 0.20703-1.707 0.92578-6.4062 13.895-6.7969 29.812-1.082 44.004 0.45703 0.73438 1.3008 1.1367 2.1562 1.0234 0.85938-0.11328 1.5703-0.71484 1.8242-1.543 3.0312-13.969-3.5938-28.602-0.19531-42.738z"/>
  <path d="m359.77 498.52c-6.1016 0.58984-12.262 0.046875-18.168-1.6016-0.85547-0.20312-1.7344 0.24219-2.0742 1.0547-0.34375 0.80859-0.046875 1.75 0.69531 2.2188 6.0859 3.6836 13.285 5.082 20.309 3.9531 1.3438-0.41406 2.1914-1.7422 2.0039-3.1367-0.1875-1.3945-1.3594-2.4453-2.7656-2.4883z"/>
  <path d="m410.91 497.12c-3.168 1.1211-6.418 1.9961-9.7227 2.6172-3.4336 1.0781-6.9961 1.6914-10.59 1.8164-1.0859 0.035157-1.9844 0.84766-2.1328 1.9219-0.14453 1.0742 0.50781 2.0938 1.5469 2.4141 4.0156 1.1953 8.2461 1.4688 12.383 0.80078 3.9961-1.1133 7.5781-3.3633 10.316-6.4805 1.207-1.2266 0.003907-3.793-1.8008-3.0898z"/>
  <path d="m407.77 477.9c-4.2773 1.332-8.7852 1.7539-13.238 1.2383-1.2969-0.3125-2.6094 0.46094-2.9648 1.75-0.35547 1.2891 0.375 2.625 1.6484 3.0234 5.3867 2.2695 11.57 1.5625 16.305-1.8672 0.94141-0.59766 1.3164-1.7852 0.88281-2.8125-0.43359-1.0273-1.5469-1.5898-2.6328-1.332z"/>
  <path d="m362.66 479.97c-2.1602-0.40625-4.2891-0.95312-6.375-1.6367-2.2383-0.48047-4.3984-1.2656-6.4219-2.3359-1.9453-1.1953-4.3281 1.7188-2.4922 3.2344 1.9375 1.8398 4.1562 3.3633 6.5703 4.5156 2.5898 0.93359 5.3672 1.2266 8.0938 0.85156 2.4141-0.22656 3.457-4.1875 0.625-4.6289z"/>
  <path d="m282.62 375.07c-1.7461-2.8359-3.3867-2.625-6.6445-2.3359-4.6602 0.41406-9.3125 1.2305-13.988 1.5547-9.8164 1.1602-19.719-1.3086-27.844-6.9414-1.2852-0.96094-2.8398 1.125-1.6992 2.2031 6.207 6.3438 14.188 10.668 22.895 12.406 4.1055 0.6875 8.3047 0.59375 12.379-0.27734 2.0664-0.64453 4.0508-1.5391 5.8984-2.6719 2.6602-1.0703 5.4453-1.8047 8.2891-2.1836 0.35547-0.10156 0.64453-0.36328 0.78125-0.70312 0.14062-0.34375 0.11719-0.73047-0.066406-1.0508z"/>
  <path d="m338.61 267.53c-5.6367 9.8164-6.7773 21.582-3.125 32.297 0.21484 0.94531 1.5898 0.53125 1.4375-0.39453-0.67578-10.453 0.78516-20.934 4.2969-30.801 0.16016-0.68359-0.19141-1.3789-0.83984-1.6523-0.64453-0.27344-1.3906-0.039063-1.7695 0.55078z"/>
  <path d="m360.68 255.64c-2.375-2.0352-5.2461-3.4023-8.3242-3.9648s-6.2461-0.29297-9.1875 0.77344c-5.6133 2.5898-9.8281 7.4844-11.555 13.418-0.60938 1.4062 1.3203 2.6445 2.1133 1.2305v0.003906c2.8984-4.1406 7.2266-7.0547 12.148-8.1836 4.5352-1.0195 9.1992-1.3359 13.832-0.93359 0.54687-0.015625 1.0312-0.35156 1.2422-0.85547 0.21094-0.50781 0.10547-1.0898-0.26953-1.4883z"/>
  <path d="m353.84 244.09c-2.9727-0.82422-6.1211-0.80469-9.0859 0.054688-2.9648 0.85937-5.6328 2.5312-7.707 4.8203-1.1172 0.96875 0.35156 2.8984 1.5898 2.0625l0.003907-0.003906c4.5039-2.4023 9.5938-3.4844 14.688-3.125 0.95312-0.027344 1.7461-0.74219 1.875-1.6875 0.125-0.94531-0.44922-1.8438-1.3633-2.1211z"/>
  <path d="m373.83 256.6c-1.4453-4.1367-5.8164-5.3711-9.3711-7.1406v-0.003907c-0.28125-0.15234-0.63672-0.054687-0.80078 0.22266-0.16016 0.28125-0.074219 0.63672 0.19922 0.80859 3.0859 2.0547 3.5859 5.8242 6 8.4297 0.76953 0.73438 1.9375 0.87109 2.8555 0.33594 0.92187-0.53906 1.3789-1.6172 1.1172-2.6523z"/>
  <path d="m361.03 237.5c-5.8867-0.96094-11.922 0.17188-17.059 3.1953-0.58594 0.25391-0.16797 1.2422 0.4375 1.0352 2.6992-1.0078 5.582-1.457 8.4609-1.3203 2.5508 0.35156 5.125 0.51562 7.6992 0.48828 0.84766-0.027343 1.5508-0.66406 1.6641-1.5039 0.11719-0.84375-0.39453-1.6406-1.2031-1.8945z"/>
  <path d="m377.79 250.49c-2.1914-2.0938-4.6562-3.8828-7.3281-5.3125-0.38281-0.19922-0.85547-0.0625-1.0742 0.30859-0.21484 0.37109-0.10156 0.85156 0.26172 1.082 2.375 1.4883 4.2148 3.6914 5.2617 6.2891 0.64453 2.3086 1.5 4.5547 2.5586 6.707 0.53516 0.84375 1.5625 1.2383 2.5273 0.97656 0.96484-0.26172 1.6523-1.1211 1.6875-2.1211-0.16406-3.0625-1.5703-5.9258-3.8945-7.9297z"/>
  <path d="m388.88 256.74c-0.12891-1.1953-0.51172-2.3477-1.1211-3.3867-1.1445-2.0547-2.6953-3.8516-4.5625-5.2812-1.1406-0.91016-2.7695 0.60938-1.6445 1.6445 1.5312 1.4062 2.6094 3.2383 3.0938 5.2617 0.37109 1.4062 0.35938 2.8555 1.4023 3.7305l0.023437 0.0625c0.14844 0.47656 0.59375 0.80469 1.0938 0.80469 0.50391 0 0.94531-0.32812 1.0938-0.80469-0.40234 0.20703-0.37109 0.15234 0.09375-0.16406l0.28516-0.37109c0.22656-0.46484 0.30859-0.98438 0.24219-1.4961z"/>
  <path d="m393.89 240.67c-6.9688-3.9688-14.949-5.8125-22.953-5.2969-1.1016-0.050781-1.0312 1.5352 0 1.6719v-0.003906c6.6016 0.48438 12.98 2.6133 18.551 6.1953 4.1914 3.8516 7.6992 8.3828 10.387 13.402 0.44922 0.61328 1.6211 0.67578 1.8008-0.23438v-0.003906c0.35547-3.0938-0.1875-6.2227-1.5703-9.0156-1.3789-2.7891-3.5391-5.1211-6.2148-6.7148z"/>
  <path d="m400.37 261.28c-0.58203-1.5508-3.0039-0.95703-2.5312 0.69922v-0.003906c1.2969 7.1758 2.1758 14.418 2.6328 21.691 0.20312 1.2617 1.9531 0.99609 2.3008 0h0.003907c2.0234-7.5 1.1641-15.488-2.4062-22.387z"/>
  <path d="m389.76 265.02c-1.0586-1.4648-3.4609-0.15234-2.4727 1.4453 2.9844 5.1836 5.5 10.625 7.5156 16.258 0.10547 0.33984 0.42188 0.57031 0.77734 0.57031s0.66797-0.23047 0.77734-0.57031c1.9688-6.6836-2.9219-12.602-6.5977-17.703z"/>
  <path d="m409.89 284.57c-0.50781-2.3477-3.8125-1.2812-3.5078 0.96875v-0.003907c0.33203 3.5 0.19922 7.0234-0.39453 10.484-0.29297 2.2617-0.36328 6.8477-1.9453 8.5625-0.14062 0.14453-0.19922 0.35156-0.14844 0.54687 0.054688 0.19531 0.20312 0.34766 0.39844 0.40234 3.2148 0.54297 4.6562-3.0273 5.4922-5.5586 1.4609-5.0234 1.4961-10.355 0.10547-15.402z"/>
  <path d="m475.08 263.02c0-0.75781-0.61328-1.375-1.375-1.375-0.75781 0-1.3711 0.61719-1.3711 1.375-1.1523 9.1406-4.8906 22.465 0.98828 30.562 0.27344 0.4375 0.80469 0.64453 1.3008 0.50781 0.5-0.13281 0.85156-0.57813 0.86719-1.0938 0.45312-9.8438-0.25781-20.094-0.41016-29.977z"/>
  <path d="m387.18 337.61c-5.4258 12.965-9.2461 26.484-14.266 39.59-1.418-2.625-3.0078-5.1523-4.7578-7.5625-2.7383-4.5664-5.3242-9.1172-7.6172-13.934-0.39062-0.82031-1.7539-0.24219-1.4727 0.62109 1.6797 5.1602 3.4492 10.367 5.6328 15.332 1.7031 3.8828 3.1875 9.2266 7.4336 10.758 0.80859 0.29297 1.4219-0.44922 1.5117-1.1523l0.023438-0.41016 0.66406-0.69141h-0.003906c5.9688-13.613 10.453-27.832 13.371-42.406z"/>
 </g>
</svg>
